HIERARCHY
ROOT Hips
{
  OFFSET -21.9159 90.2461 -13.2575
  CHANNELS 6 Xposition Yposition Zposition Zrotation Xrotation Yrotation
  JOINT ToSpine
  {
    OFFSET -2.69724 7.43032 -0.144315
    CHANNELS 3 Zrotation Xrotation Yrotation
    JOINT Spine
    {
      OFFSET -0.0310711 10.7595 1.96963
      CHANNELS 3 Zrotation Xrotation Yrotation
      JOINT Spine1
      {
        OFFSET 13.1342 3.43533 0.764692
        CHANNELS 3 Zrotation Xrotation Yrotation
        JOINT Neck
        {
          OFFSET 29.8703 7.82586 -0.130764
          CHANNELS 3 Zrotation Xrotation Yrotation
          JOINT Head
          {
            OFFSET 9.52751 0.295786 -0.907742
            CHANNELS 3 Zrotation Xrotation Yrotation
            End Site
            {
              OFFSET 16.4037 0.713936 2.7358
            }
          }
        }
        JOINT LeftShoulder
        {
          OFFSET 27.5574 4.95586 2.47156
          CHANNELS 3 Zrotation Xrotation Yrotation
          JOINT LeftArm
          {
            OFFSET 1.20734 -0.998971 20.1238
            CHANNELS 3 Zrotation Xrotation Yrotation
            JOINT LeftForeArm
            {
              OFFSET 26.8049 -0.0536703 -0.155908
              CHANNELS 3 Zrotation Xrotation Yrotation
              JOINT LeftHand
              {
                OFFSET 26.6817 0 0.320147
                CHANNELS 3 Zrotation Xrotation Yrotation
                End Site
                {
                  OFFSET 18.6119 0 0.382219
                }
              }
            }
          }
        }
        JOINT RightShoulder
        {
          OFFSET 27.5927 4.71444 -2.65209
          CHANNELS 3 Zrotation Xrotation Yrotation
          JOINT RightArm
          {
            OFFSET 2.83739 -1.17114 -18.7564
            CHANNELS 3 Zrotation Xrotation Yrotation
            JOINT RightForeArm
            {
              OFFSET 28.839 -0.0548439 1.22491
              CHANNELS 3 Zrotation Xrotation Yrotation
              JOINT RightHand
              {
                OFFSET 26.5114 0 -0.101894
                CHANNELS 3 Zrotation Xrotation Yrotation
                End Site
                {
                  OFFSET 18.2168 0 0
                }
              }
            }
          }
        }
      }
    }
  }
  JOINT LeftUpLeg
  {
    OFFSET -4.76168 -1.9167 -10.2353
    CHANNELS 3 Zrotation Xrotation Yrotation
    JOINT LeftLeg
    {
      OFFSET 2.55951 -42.0585 -8.02213
      CHANNELS 3 Zrotation Xrotation Yrotation
      JOINT LeftFoot
      {
        OFFSET 3.16357 -42.5282 -3.95426
        CHANNELS 3 Zrotation Xrotation Yrotation
        JOINT LeftToeBase
        {
          OFFSET 0.346054 -6.02161 12.8035
          CHANNELS 3 Zrotation Xrotation Yrotation
          End Site
          {
            OFFSET 0.134235 -1.35082 5.13018
          }
        }
      }
    }
  }
  JOINT RightUpLeg
  {
    OFFSET -4.94151 -1.41743 10.6446
    CHANNELS 3 Zrotation Xrotation Yrotation
    JOINT RightLeg
    {
      OFFSET -2.56294 -42.0364 -7.94377
      CHANNELS 3 Zrotation Xrotation Yrotation
      JOINT RightFoot
      {
        OFFSET -3.0952 -42.555 -4.02241
        CHANNELS 3 Zrotation Xrotation Yrotation
        JOINT RightToeBase
        {
          OFFSET -0.0828122 -6.13587 12.8035
          CHANNELS 3 Zrotation Xrotation Yrotation
          End Site
          {
            OFFSET -0.131328 -1.35082 5.13018
          }
        }
      }
    }
  }
}
MOTION
Frames:	8
Frame Time:	0.0333333
-6.88348 96.6519 6.33488 79.8521 27.5862 8.60139 -70.1915 0 88.8779 87.7816 71.878 -7.69464 -0.284848 21.0954 4.22943 -134.107 33.9605 162.829 179.853 75.3055 -150.979 0.73608 -12.7152 -22.0134 -61.0144 33.4251 -133.085 17.9293 -5.74188 -106.367 0.420957 0.000575242 0.35866 -0.936267 4.7327 35.0976 -117.735 -5.65932 67.9976 10.7199 -1.97913 79.5514 0.58676 0.000331013 0.0646653 -45.6432 19.6033 98.5978 -3.35504 58.0292 4.90912 -1.72985 -2.233 -0.0751464 2.34098 -4.92432 -0.540381 -56.026 -6.46389 67.8542 0.718901 44.0869 -9.44469 -18.7492 9.22281 3.35142 4.33316 -32.7847 0.715749 
-7.72911 95.0153 5.157 78.1481 25.529 8.28625 -70.1915 0 88.8779 86.5616 71.5117 -5.17443 -0.520586 20.3456 5.27855 -135.312 33.8903 163.075 -177.518 75.2366 -154.008 0.733698 -12.5934 -22.8059 -62.6718 34.4959 -133.623 21.0351 -6.71848 -106.121 0.420957 0.000575242 0.35866 -1.22528 5.17283 38.6957 -118.761 -2.28311 75.8278 10.3469 -2.99678 73.9685 0.58676 0.000331013 0.0646653 -45.7223 22.7905 95.3231 -1.15286 51.0309 10.6479 -0.68007 -3.69075 -0.313458 0.832449 -2.14067 0.807154 -53.6345 -5.06744 74.118 1.11197 44.7436 -7.22844 -16.9634 4.10226 2.62887 2.54539 -32.6382 -12.008 
-8.74261 93.4887 3.48973 77.114 24.607 8.58675 -70.1915 0 88.8779 86.1055 70.7438 -3.48578 0.452847 19.046 6.71755 -135.155 33.6316 162.402 -175.496 75.1769 -155.718 0.63116 -13.1617 -23.8728 -63.4537 34.4023 -134.632 21.9613 -6.82973 -105.637 0.420957 0.000575242 0.35866 -1.23023 4.66427 41.4792 -119.625 -0.453749 83.8992 10.817 -4.54189 67.4808 0.58676 0.000331013 0.0646653 -45.8339 24.8222 91.3125 -0.961503 45.4447 8.78721 0.168523 -0.602102 -0.157853 3.56863 -8.41784 3.0816 -51.9418 -7.1362 73.8042 2.02303 46.6288 -2.42638 -18.747 1.07037 2.67011 1.43447 -31.8506 -20.4275 
-9.8009 92.2591 1.73923 75.7737 24.5717 8.75484 -70.1915 0 88.8779 84.9721 70.3019 -2.74811 0.776134 17.7883 9.11316 -134.841 34.5165 161.675 178.501 75.9486 -150.473 0.547554 -13.8633 -23.4419 -63.6289 34.4431 -137.078 22.7386 -6.50536 -104.345 0.420957 0.000575242 0.35866 -1.56216 5.51062 43.0776 -120.785 0.97301 87.44 11.2331 -5.95685 62.428 0.58676 0.000331013 0.0646653 -45.5001 24.3564 86.4551 -1.61947 41.9067 2.39966 -0.96585 0.218225 0.0532959 1.18145 -2.78667 0.536383 -49.5448 -10.674 71.7348 2.52756 49.2883 -1.17333 -20.6492 -1.40612 2.68679 1.22972 -30.2405 -23.1233 
-11.1059 91.1919 -0.146427 74.588 24.4814 9.39512 -70.1915 0 88.8779 85.4095 70.1328 -2.4859 1.08895 17.1984 10.4061 -132.677 34.5365 157.892 -179.767 76.9247 -151.407 0.448766 -14.5942 -23.4238 -63.9456 32.9092 -140.585 25.6084 -6.38809 -102.31 0.420957 0.000575242 0.35866 -1.74402 5.53866 46.0497 -121.584 3.75284 91.3606 8.81156 -5.81735 56.933 0.58676 0.000331013 0.0646653 -45.1145 23.1753 81.953 -2.6824 40.2396 -7.53282 -1.41813 4.82596 0.526409 4.93895 -11.1449 3.32304 -47.4742 -12.6117 71.5968 2.71173 50.8413 -1.3698 -22.4263 -1.72356 2.86114 1.04573 -31.0968 -23.984 
-12.4872 90.1674 -2.53325 74.104 24.2948 8.97185 -70.1915 0 88.8779 84.5431 70.0401 -1.43057 2.20784 16.7531 11.8652 -131.135 35.2785 157.288 172.895 77.4782 -143.373 0.303154 -15.2538 -24.6281 -65.0267 30.9572 -142.586 25.2353 -5.74232 -101.235 0.420957 0.000575242 0.35866 -2.08263 6.20751 47.8697 -118.197 5.73464 94.1309 -10.1368 7.0018 55.1938 0.58676 0.000331013 0.0646653 -44.6905 21.9925 81.5703 -2.81373 42.4384 -6.89581 -3.28564 -0.913489 0.236815 6.30654 -13.397 -0.361908 -45.4714 -14.128 74.8589 3.20161 52.6789 -0.164897 -21.5257 -1.84445 2.74327 0.403186 -31.0786 -29.1964 
-13.665 89.5724 -4.61346 73.8319 23.6633 7.4855 -70.1915 0 88.8779 82.3853 70.5741 0.166589 3.43351 17.3029 11.7297 -128.802 35.0411 153.25 177.721 78.6805 -147.445 0.204386 -16.0914 -24.1642 -65.3417 29.709 -145.419 25.0116 -5.00571 -99.8578 0.420957 0.000575242 0.35866 -2.17468 6.17345 49.4428 -121.433 6.63134 96.7918 1.74103 -1.74799 46.4374 0.58676 0.000331013 0.0646653 -44.7044 21.5343 87.1593 -3.20798 43.7241 -9.04638 -2.73098 -4.25664 -0.172601 7.19296 -15.3876 1.99586 -43.5453 -15.4285 78.9527 3.03905 53.5234 -1.73614 -21.5857 -1.60364 2.7765 0.294008 -31.2378 -29.8694 
-14.877 89.3477 -6.49722 73.957 22.5856 6.39306 -70.1915 0 88.8779 84.5937 70.8856 -2.0635 3.13588 17.5453 11.5796 -126.318 34.7096 151.563 175.874 79.0035 -144.925 0.16317 -16.3986 -24.1115 -65.9282 28.9785 -146.625 25.7779 -4.75673 -99.0175 0.420957 0.000575242 0.35866 -2.3113 6.06369 52.121 -123.245 7.20822 99.4154 4.71852 -5.58373 40.7434 0.58676 0.000331013 0.0646653 -43.9631 21.9214 92.6261 -3.38519 46.3958 -7.67499 -0.376028 -8.99021 -0.78125 5.10412 -10.6449 -1.70561 -42.3879 -15.9911 82.1437 2.65756 53.2405 -3.53522 -21.7452 -0.701412 2.89496 0.465397 -31.2577 -28.485 
